<?xml version="1.0" encoding="utf-8"?>
<!-- Generator: Adobe Illustrator 25.1.0, SVG Export Plug-In . SVG Version: 6.00 Build 0)  -->
<svg version="1.1" xmlns="http://www.w3.org/2000/svg" xmlns:xlink="http://www.w3.org/1999/xlink" x="0px" y="0px"
	 viewBox="0 0 933.3 320.2" style="enable-background:new 0 0 933.3 320.2;" xml:space="preserve">
<style type="text/css">
	.st0{fill:#FFFFFF;}
	.st1{font-family:'MyriadPro-Regular';}
	.st2{font-size:60px;}
	.st3{font-size:36px;}
	.st4{fill:#1D1D1B;}
	.st5{fill:#3FAB35;}
	.st6{fill:none;stroke:#3FAB35;stroke-width:4;stroke-miterlimit:10;}
</style>
<g id="Calque_2">
	<rect class="st0" width="933.3" height="318.7"/>
</g>
<g id="Calque_1">
	<g>
		<g>
			<text transform="matrix(1 0 0 1 370.1503 157.3835)" class="st1 st2">Gabriel Voissiere</text>
			<text transform="matrix(1 0 0 1 372.3099 203.9957)" class="st1 st3">Développeur web</text>
		</g>
		<g>
			<g id="Calque_2_1_">
				<circle class="st4" cx="271.9" cy="160.1" r="65.6"/>
			</g>
			<g id="Calque_1_1_">
				<path class="st0" d="M230.7,129.8c-1.8,0.9-3.5,2.1-5,3.5c-1.3,1.4-2.3,3.1-2.9,5c-0.9,3.7-0.7,7.6,0.5,11.3
					c2.2,7.6,6.6,14.6,11,21.2c2.4,3.4,4.9,6.6,7.3,9.6c2.5,3,2.6,3.1,4.1,4.6c1.3,1.3,2.6,2.6,4.1,3.8l0.8,0.7c0,0,0.1,0-0.1-0.1
					c-0.5-0.2-1-0.2-1.4-0.1h-0.8c-0.4,0-0.8,0.1-1,0.4c-0.4,0.2-0.8,0.5-1,0.9l-0.5,0.8c-0.3,0.5-0.4,1.1-0.4,1.7v-2.8
					c-0.1-2.1-0.1-4.3,0-6.4c0-4.3,0.4-8.7,1-13c1.3-9,4.6-17.5,9.6-25.1c2.6-3.8,5.8-7.1,9.4-9.8c3.7-2.7,7.8-4.9,12.2-6.3
					c4.3-1.3,8.8-2,13.2-2.1c4.4,0,8.8,0.5,13.1,1.4c4.2,1,8.3,2.5,12.1,4.6c1.9,1,3.7,2.2,5.4,3.4c1.7,1.3,3.3,2.8,4.6,4.5
					c-3.4-2.4-7.1-4.2-11-5.4c-3.9-1.2-7.9-2-11.9-2.4c-3.9-0.4-7.9-0.3-11.8,0.3c-3.8,0.5-7.5,1.4-11,2.9c-7,2.8-12.9,7.7-16.9,14
					c-4,6.5-6.6,13.8-7.7,21.4c-0.7,3.9-1,7.9-1.3,11.8c-0.3,3.9-0.1,4.1-0.1,6v2.6c0.1,0.9-0.1,1.7-0.4,2.5l-0.7,1l-1.2,0.9
					l-1.3,0.5h-0.9c-0.4,0.1-0.5,0-0.8,0h-1.3l-1.6-0.9l-1.7-1.3c-1.7-1.6-3.3-3.2-4.7-5c-1.3-1.7-2.8-3.4-3.9-5.1
					c-1.2-1.7-4.9-7.1-7.1-10.8l-3-5.6c-0.9-2-1.8-3.9-2.6-5.9c-1.7-4-2.9-8.3-3.7-12.6c-0.3-2.2-0.4-4.4-0.3-6.6
					c0.1-2.3,0.7-4.5,1.7-6.6c1-2,2.5-3.8,4.3-5.1C226.7,131.1,228.7,130.3,230.7,129.8z"/>
				<path class="st0" d="M267.2,166.4c-0.3,0.5,0,0.9,0.1,1.3c0.2,0.4,0.5,0.8,0.9,1c0.7,0.6,1.5,1.1,2.4,1.3
					c1.8,0.4,3.6,0.5,5.4,0.1c1.7-0.1,3.8-0.7,5.6-0.9l5.9-1l11.7-1.8l11.8-1.4l5-0.5l-1.6,4.7c-1.8,5.4-4.7,10.4-8.7,14.6
					c-3.9,4-8.5,7.2-13.5,9.6c-2.5,1.2-5.1,2.2-7.7,2.9c-2.7,0.7-5.5,1.1-8.3,1.2c-2.8,0-5.6-0.8-8.1-2.1c-1.2-0.7-2.3-1.5-3.1-2.6
					c-0.4-0.6-0.7-1.3-0.9-2c-0.1-0.3-0.2-0.7-0.1-1c0.1-0.3,0.4-0.6,0.7-0.8c-0.4,0.5-0.5,1.2-0.1,1.7c0.3,0.5,0.7,1,1.2,1.4
					c1,0.8,2.1,1.3,3.3,1.7c2.3,0.7,4.8,1,7.2,0.7c2.4-0.5,4.8-1.2,7.1-2.1c2.3-1,4.5-2.1,6.7-3.4c4.2-2.5,8-5.6,11.3-9.3
					c3.2-3.6,5.6-7.8,7.1-12.3l3.4,4.2c-3.9,0.5-7.9,0.9-11.8,1.2c-3.9,0.3-7.9,0.5-11.8,0.8l-5.9,0.3c-2.1,0-3.9,0.1-6.2,0
					c-2.2-0.1-4.3-0.8-6.2-1.8c-1-0.6-1.8-1.4-2.4-2.4c-0.3-0.4-0.5-0.9-0.7-1.4C266.7,167.4,266.9,166.8,267.2,166.4z"/>
			</g>
		</g>
	</g>
	<polygon class="st5" points="0,162.7 156.3,319 0,319 	"/>
	<polygon class="st5" points="0,138.7 180,318.7 211,318.7 0,107.6 	"/>
	<path class="st6" d="M933.3,102c-56.3,0-102-45.7-102-102 M799.1,0c0,74.1,60.1,134.2,134.2,134.2"/>
	<path class="st5" d="M933.3,0v102c-56.3,0-102-45.7-102-102H933.3z"/>
</g>
</svg>
