<svg xmlns="http://www.w3.org/2000/svg" xmlns:xlink="http://www.w3.org/1999/xlink" viewBox="0 0 880.6 293"><defs><style>.cls-1{fill:#dc5526;}.cls-2{fill:#c9619f;}.cls-3{fill:#6ebd2f;}.cls-4{fill:url(#Dégradé_sans_nom_12);}.cls-5{fill:url(#Dégradé_sans_nom_12-2);}.cls-6{fill:url(#Dégradé_sans_nom_12-3);}.cls-7{fill:url(#Dégradé_sans_nom_12-4);}.cls-8{fill:url(#Dégradé_sans_nom_12-5);}.cls-9{fill:url(#Dégradé_sans_nom_12-6);}.cls-10{fill:url(#Dégradé_sans_nom_12-7);}.cls-11{fill:url(#Dégradé_sans_nom_12-8);}.cls-12{fill:url(#Dégradé_sans_nom_12-9);}.cls-13{fill:url(#Dégradé_sans_nom_12-10);}.cls-14{fill:url(#Dégradé_sans_nom_12-11);}.cls-15{fill:url(#Dégradé_sans_nom_12-12);}.cls-16{fill:url(#Dégradé_sans_nom_12-13);}.cls-17{fill:url(#Dégradé_sans_nom_12-14);}.cls-18{fill:url(#Dégradé_sans_nom_12-15);}.cls-19{fill:#46bb74;}.cls-20{fill:#e7e500;}.cls-21{fill:#4cb1f9;}.cls-22{fill:#1d1d1b;}</style><linearGradient id="Dégradé_sans_nom_12" x1="569.55" y1="-34.06" x2="715.3" y2="243.57" gradientTransform="matrix(-0.94, 0.34, 0.34, 0.94, 1322.53, -183.03)" gradientUnits="userSpaceOnUse"><stop offset="0.17" stop-color="#6ebd2f"/><stop offset="0.81" stop-color="#363636"/></linearGradient><linearGradient id="Dégradé_sans_nom_12-2" x1="551.09" y1="-24.37" x2="696.85" y2="253.26" xlink:href="#Dégradé_sans_nom_12"/><linearGradient id="Dégradé_sans_nom_12-3" x1="537.73" y1="-17.35" x2="683.48" y2="260.27" xlink:href="#Dégradé_sans_nom_12"/><linearGradient id="Dégradé_sans_nom_12-4" x1="527.03" y1="-11.74" x2="672.78" y2="265.89" xlink:href="#Dégradé_sans_nom_12"/><linearGradient id="Dégradé_sans_nom_12-5" x1="518.37" y1="-7.19" x2="664.12" y2="270.44" xlink:href="#Dégradé_sans_nom_12"/><linearGradient id="Dégradé_sans_nom_12-6" x1="529.66" y1="-13.12" x2="675.42" y2="264.51" xlink:href="#Dégradé_sans_nom_12"/><linearGradient id="Dégradé_sans_nom_12-7" x1="535.07" y1="-15.96" x2="680.82" y2="261.67" xlink:href="#Dégradé_sans_nom_12"/><linearGradient id="Dégradé_sans_nom_12-8" x1="509.67" y1="-2.62" x2="655.42" y2="275" xlink:href="#Dégradé_sans_nom_12"/><linearGradient id="Dégradé_sans_nom_12-9" x1="520.4" y1="-8.26" x2="666.15" y2="269.37" xlink:href="#Dégradé_sans_nom_12"/><linearGradient id="Dégradé_sans_nom_12-10" x1="552.26" y1="-24.98" x2="698.01" y2="252.64" xlink:href="#Dégradé_sans_nom_12"/><linearGradient id="Dégradé_sans_nom_12-11" x1="560.59" y1="-29.36" x2="706.34" y2="248.27" xlink:href="#Dégradé_sans_nom_12"/><linearGradient id="Dégradé_sans_nom_12-12" x1="567.33" y1="-32.89" x2="713.08" y2="244.73" xlink:href="#Dégradé_sans_nom_12"/><linearGradient id="Dégradé_sans_nom_12-13" x1="527.25" y1="-11.85" x2="673.01" y2="265.77" xlink:href="#Dégradé_sans_nom_12"/><linearGradient id="Dégradé_sans_nom_12-14" x1="539.75" y1="-18.42" x2="685.51" y2="259.21" xlink:href="#Dégradé_sans_nom_12"/><linearGradient id="Dégradé_sans_nom_12-15" x1="549.87" y1="-23.73" x2="695.62" y2="253.9" xlink:href="#Dégradé_sans_nom_12"/></defs><g id="Calque_3" data-name="Calque 3"><circle class="cls-1" cx="791.8" cy="214.5" r="34.2"/><circle class="cls-1" cx="824" cy="266.8" r="9.9"/><circle class="cls-1" cx="842.6" cy="270.7" r="6.6"/><circle class="cls-1" cx="856.1" cy="273.5" r="4.7"/><circle class="cls-1" cx="866.9" cy="275.8" r="3.8"/><circle class="cls-1" cx="875.6" cy="277.6" r="2.6"/><circle class="cls-1" cx="876.8" cy="265.4" r="3.8"/><circle class="cls-1" cx="868" cy="266.9" r="2.6"/><circle class="cls-1" cx="871.8" cy="289.2" r="3.8"/><circle class="cls-1" cx="864.3" cy="284.4" r="2.6"/><circle class="cls-1" cx="856.9" cy="258.4" r="4.7"/><circle class="cls-1" cx="845.9" cy="258.6" r="3.8"/><circle class="cls-1" cx="836.9" cy="258.9" r="2.6"/><circle class="cls-1" cx="851.2" cy="287.8" r="4.7"/><circle class="cls-1" cx="841.2" cy="283.1" r="3.8"/><circle class="cls-1" cx="833.1" cy="279.3" r="2.6"/><image width="1024" height="1024" transform="translate(785.7 178.8) rotate(16.5) scale(0.08)" xlink:href="../../../../../Images/cover%20gihtub/1024px-HTML5_logo_and_wordmark.svg.png"/><circle class="cls-2" cx="589.7" cy="240.2" r="34.7"/><circle class="cls-2" cx="652.6" cy="211.6" r="11.3"/><circle class="cls-2" cx="673.9" cy="215.6" r="7.5"/><circle class="cls-2" cx="689.3" cy="218.4" r="5.3"/><circle class="cls-2" cx="701.7" cy="220.7" r="4.3"/><circle class="cls-2" cx="711.7" cy="222.5" r="2.9"/><circle class="cls-2" cx="712.7" cy="208.6" r="4.3"/><circle class="cls-2" cx="702.7" cy="210.5" r="2.9"/><circle class="cls-2" cx="707.6" cy="235.9" r="4.3"/><circle class="cls-2" cx="699" cy="230.6" r="2.9"/><circle class="cls-2" cx="689.8" cy="201.2" r="5.3"/><circle class="cls-2" cx="677.3" cy="201.8" r="4.3"/><circle class="cls-2" cx="667.2" cy="202.3" r="2.9"/><circle class="cls-2" cx="684.1" cy="234.8" r="5.3"/><circle class="cls-2" cx="672.6" cy="229.7" r="4.3"/><circle class="cls-2" cx="663.4" cy="225.6" r="2.9"/><image width="2560" height="1920" transform="translate(574 196.8) rotate(-23) scale(0.03)" xlink:href="../../../../../Images/cover%20gihtub/2560px-Sass_Logo_Color.svg.png"/><circle class="cls-3" cx="639.3" cy="80.3" r="49.2"/><circle class="cls-4" cx="762" cy="69.2" r="14.2"/><circle class="cls-5" cx="785.1" cy="54.7" r="9.5"/><circle class="cls-6" cx="801.8" cy="44.1" r="6.7"/><circle class="cls-7" cx="815.2" cy="35.7" r="5.4"/><circle class="cls-8" cx="826" cy="28.9" r="3.7"/><circle class="cls-9" cx="815.1" cy="15.1" r="5.4"/><circle class="cls-10" cx="807.5" cy="25.4" r="3.7"/><circle class="cls-11" cx="833.7" cy="44.7" r="5.4"/><circle class="cls-12" cx="821.1" cy="47.1" r="3.7"/><circle class="cls-13" cx="787.5" cy="27.7" r="6.7"/><circle class="cls-14" cx="776.4" cy="39" r="5.4"/><circle class="cls-15" cx="767.5" cy="48.1" r="3.7"/><circle class="cls-16" cx="811" cy="63.8" r="6.7"/><circle class="cls-17" cx="796" cy="68.9" r="5.4"/><circle class="cls-18" cx="783.9" cy="73" r="3.7"/><image width="1280" height="783" transform="matrix(0.13, 0.05, -0.05, 0.13, 641.4, 0)" xlink:href="../../../../../Images/cover%20gihtub/1280px-Node.js_logo.svg.png"/><circle class="cls-19" cx="267.9" cy="179.2" r="34.7"/><circle class="cls-19" cx="236.3" cy="245.1" r="11.8"/><circle class="cls-19" cx="214.5" cy="250.8" r="7.8"/><circle class="cls-19" cx="198.7" cy="255" r="5.5"/><circle class="cls-19" cx="186" cy="258.3" r="4.5"/><circle class="cls-19" cx="175.8" cy="261" r="3"/><circle class="cls-19" cx="173.6" cy="246.6" r="4.5"/><circle class="cls-19" cx="184.1" cy="247.8" r="3"/><circle class="cls-19" cx="181" cy="274.6" r="4.5"/><circle class="cls-19" cx="189.5" cy="268.3" r="3"/><circle class="cls-19" cx="196.8" cy="237.1" r="5.5"/><circle class="cls-19" cx="209.9" cy="236.7" r="4.5"/><circle class="cls-19" cx="220.5" cy="236.5" r="3"/><circle class="cls-19" cx="205.3" cy="271.6" r="5.5"/><circle class="cls-19" cx="216.9" cy="265.5" r="4.5"/><circle class="cls-19" cx="226.2" cy="260.5" r="3"/><image width="256" height="256" transform="translate(193.3 177.8) rotate(-8.8) scale(0.34)" xlink:href="../../../../../Images/cover%20gihtub/vuejs-3-1175070.png"/><circle class="cls-20" cx="196.8" cy="55.7" r="50.8"/><circle class="cls-20" cx="93.7" cy="126.4" r="16.8"/><circle class="cls-20" cx="61.5" cy="125.7" r="11.2"/><circle class="cls-20" cx="38.2" cy="125.3" r="7.9"/><circle class="cls-20" cx="19.6" cy="124.9" r="6.4"/><circle class="cls-20" cx="4.5" cy="124.7" r="4.3"/><circle class="cls-20" cx="7.2" cy="104.1" r="6.4"/><circle class="cls-20" cx="21.1" cy="109.9" r="4.3"/><circle class="cls-20" cx="6.4" cy="145.3" r="6.4"/><circle class="cls-20" cx="20.5" cy="140.1" r="4.3"/><circle class="cls-20" cx="42.6" cy="100" r="7.9"/><circle class="cls-20" cx="60.7" cy="104.7" r="6.4"/><circle class="cls-20" cx="75.3" cy="108.4" r="4.3"/><circle class="cls-20" cx="40.9" cy="150.7" r="7.9"/><circle class="cls-20" cx="59.1" cy="146.8" r="6.4"/><circle class="cls-20" cx="73.9" cy="143.6" r="4.3"/><image width="1052" height="1052" transform="translate(106.2 24.2) rotate(7) scale(0.1)" xlink:href="../../../../../Images/cover%20gihtub/JavaScript-logo.png"/><circle class="cls-21" cx="102.5" cy="217.6" r="27.2"/><circle class="cls-21" cx="61.3" cy="272.9" r="8.9"/><circle class="cls-21" cx="44.4" cy="271.8" r="5.9"/><circle class="cls-21" cx="32.1" cy="271" r="4.2"/><circle class="cls-21" cx="22.3" cy="270.4" r="3.4"/><circle class="cls-21" cx="14.4" cy="269.9" r="2.3"/><circle class="cls-21" cx="16.2" cy="259.1" r="3.4"/><circle class="cls-21" cx="23.5" cy="262.5" r="2.3"/><circle class="cls-21" cx="14.9" cy="280.9" r="3.4"/><circle class="cls-21" cx="22.5" cy="278.4" r="2.3"/><circle class="cls-21" cx="35" cy="257.8" r="4.2"/><circle class="cls-21" cx="44.5" cy="260.7" r="3.4"/><circle class="cls-21" cx="52.1" cy="263" r="2.3"/><circle class="cls-21" cx="33" cy="284.5" r="4.2"/><circle class="cls-21" cx="42.7" cy="282.8" r="3.4"/><circle class="cls-21" cx="50.5" cy="281.5" r="2.3"/><image width="380" height="512" transform="translate(54.3 227.6) rotate(-8.9) scale(0.1)" xlink:href="../../../../../Images/cover%20gihtub/sql-database-generic-icon-380x512-ez505zus.png"/><g id="Calque_2" data-name="Calque 2"><path class="cls-22" d="M421.8,214v0Z" transform="translate(-26.7 -13.5)"/><path class="cls-22" d="M429.7,209.5l-.2-.2h0C429.9,209.5,429.7,209.5,429.7,209.5Z" transform="translate(-26.7 -13.5)"/><path class="cls-22" d="M461.2,69a97,97,0,1,0,97.1,97A97,97,0,0,0,461.2,69Zm62.9,110.4A56.1,56.1,0,0,1,511.2,201a68.9,68.9,0,0,1-31.3,18.4,50.7,50.7,0,0,1-12.2,1.8,26.9,26.9,0,0,1-12.1-3.2,17,17,0,0,1-4.6-3.8,6.9,6.9,0,0,1-1.4-3,7.7,7.7,0,0,1-.2-1.5,2.9,2.9,0,0,1,1-1.2,2.1,2.1,0,0,0-.2,2.5,18.4,18.4,0,0,0,1.7,2.2,14.2,14.2,0,0,0,4.9,2.5,25.6,25.6,0,0,0,10.7,1,54.4,54.4,0,0,0,10.4-3.2,77.7,77.7,0,0,0,10-5,69,69,0,0,0,16.6-13.8,51.6,51.6,0,0,0,7.5-11.1c-3.1.3-6.2.6-9.4.7l-17.5,1.2-8.7.3c-3.1,0-5.8.3-9.1,0a20.9,20.9,0,0,1-9.1-2.7,9.1,9.1,0,0,1-3.5-3.5,6.8,6.8,0,0,1-1-2.1,2.5,2.5,0,0,1,.6-2.1c-.4.7,0,1.3.2,1.9a6.5,6.5,0,0,0,1.3,1.6,8,8,0,0,0,3.5,1.9,19.7,19.7,0,0,0,8,.2c2.5-.2,5.6-1,8.4-1.4l8.7-1.5,17.2-2.7,17.5-2.2,7.3-.8Zm.8-49a81.9,81.9,0,0,0-17.6-3.5,73.1,73.1,0,0,0-17.5.3,65.3,65.3,0,0,0-16.3,4.3,52.9,52.9,0,0,0-25,20.8,83.6,83.6,0,0,0-11.4,31.5c-1,5.9-1.6,11.7-2,17.5s-.2,6-.2,8.9v3.9a7.8,7.8,0,0,1-.5,3.7l-1,1.6-1.8,1.3-1.9.8h-1.3c-.6.2-.8,0-1.2,0h-1.9l-2.4-1.3-2.5-2a95.8,95.8,0,0,1-6.9-7.3c-2-2.5-4.1-5.1-5.9-7.6s-7.2-10.5-10.5-15.9l-4.5-8.3c-1.3-3-2.7-5.9-3.8-8.7a80.9,80.9,0,0,1-5.4-18.6,45.3,45.3,0,0,1-.4-9.7,22.9,22.9,0,0,1,2.5-9.7,19.6,19.6,0,0,1,6.4-7.6,30,30,0,0,1,8.4-3.6,32.2,32.2,0,0,0-7.3,5.2,19.7,19.7,0,0,0-4.3,7.4,30.7,30.7,0,0,0,.8,16.7c3.3,11.2,9.7,21.5,16.3,31.4,3.4,5.1,7.2,9.7,10.8,14.2s3.7,4.5,5.1,6a3.8,3.8,0,0,0,.1-1,124.3,124.3,0,0,1,1.6-19.2,89.6,89.6,0,0,1,14.2-37.1,61.7,61.7,0,0,1,13.9-14.5,65,65,0,0,1,18.1-9.4,76.4,76.4,0,0,1,19.6-3.1,90.1,90.1,0,0,1,19.4,2.1,75.2,75.2,0,0,1,17.8,6.8,60.3,60.3,0,0,1,8,5.1,35.1,35.1,0,0,1,6.8,6.5A55.9,55.9,0,0,0,524.9,130.4Z" transform="translate(-26.7 -13.5)"/></g></g></svg>